<svg version="1.1" id="Layer_1" xmlns="http://www.w3.org/2000/svg" xmlns:xlink="http://www.w3.org/1999/xlink" x="0px" y="0px"
	 width="100%" viewBox="0 0 788 462" enable-background="new 0 0 788 462" xml:space="preserve">
<path fill="#010100" opacity="1.000000" stroke="none" 
	d="
M542.000000,463.000000 
	C530.312439,463.000000 518.624878,463.000000 506.025757,462.962494 
	C504.460663,461.475525 504.078003,459.022705 503.104187,458.759857 
	C499.843140,457.879700 499.486053,455.629181 499.460358,453.046875 
	C499.385712,445.552948 499.388550,438.058136 499.370911,430.563690 
	C499.360504,426.147522 499.368988,421.731293 499.368988,417.423462 
	C507.202148,416.550415 507.847076,416.965973 510.700165,423.320557 
	C511.071808,424.148376 512.186279,424.642700 512.956665,425.291473 
	C513.583679,424.483521 514.733582,423.682800 514.744812,422.866364 
	C514.787537,419.764038 514.462158,416.656616 514.250305,413.153015 
	C504.467377,413.153015 495.163452,413.152985 485.859528,413.153046 
	C476.612549,413.153137 476.576447,413.153168 476.579773,422.419525 
	C476.580139,423.369568 477.338654,424.319336 477.745361,425.269226 
	C478.683258,424.584930 480.041260,424.105621 480.491272,423.183258 
	C483.563873,416.885803 484.479218,416.347931 491.958618,417.530914 
	C491.958618,429.920837 492.036743,442.372040 491.834961,454.818695 
	C491.815308,456.031830 490.218414,458.053864 489.095398,458.254425 
	C486.017273,458.804169 486.017975,460.774384 486.000000,463.000000 
	C469.312439,463.000000 452.624878,463.000000 434.988098,462.898285 
	C435.593201,461.485901 437.048004,460.029510 438.718170,458.888336 
	C449.459106,451.549133 452.625641,435.436157 445.580292,423.642944 
	C439.425659,413.340668 425.195465,409.620117 413.983337,415.580536 
	C405.751099,419.956818 401.898987,427.246826 401.531006,436.330627 
	C401.126343,446.318268 404.568420,454.528412 413.409180,460.006348 
	C414.480011,460.669861 415.146271,461.986206 416.000000,463.000000 
	C401.979095,463.000000 387.958221,463.000000 373.250671,462.646790 
	C372.490845,461.257050 372.740631,459.495544 372.294403,459.296783 
	C368.084106,457.421600 368.169373,453.605347 367.794617,449.995422 
	C366.935883,441.723358 366.143402,433.444427 365.284943,425.172333 
	C364.893585,421.401001 364.555756,417.757599 369.210052,416.103973 
	C369.744690,415.914062 369.852325,414.522156 370.183685,413.617218 
	C359.214478,412.065002 359.096222,412.130890 355.438019,421.753510 
	C355.142609,422.530670 354.910278,423.332092 354.607147,424.106049 
	C351.060944,433.158966 347.506775,442.208771 343.586426,452.197754 
	C342.311462,449.785706 341.471863,448.393219 340.813477,446.919708 
	C336.744843,437.813812 332.719208,428.688751 328.674988,419.571960 
	C325.498627,412.411621 323.287750,411.514740 314.522003,414.051941 
	C314.868225,414.772675 315.054810,415.899200 315.532562,416.040405 
	C319.867065,417.321320 319.699402,420.685730 319.409271,424.093597 
	C318.675507,432.712280 318.033386,441.342499 317.068085,449.935944 
	C316.658875,453.579010 316.884521,457.765900 312.145721,459.461945 
	C311.433014,459.717010 311.365814,461.775696 311.000000,463.000000 
	C296.979095,463.000000 282.958221,463.000000 268.062225,462.816071 
	C268.890411,461.406525 270.560913,460.132080 272.302368,458.963287 
	C283.221100,451.635193 286.416779,435.651337 279.328461,423.711334 
	C273.066986,413.164124 258.571716,409.503510 247.255661,415.820374 
	C239.105316,420.370117 235.361252,427.766174 235.136185,436.864014 
	C234.893005,446.693909 238.467194,454.719543 247.182724,460.030945 
	C248.307297,460.716278 249.069794,461.995728 250.000000,463.000000 
	C233.312439,463.000000 216.624878,463.000000 199.071625,462.802521 
	C201.269257,460.364655 204.332565,458.124268 207.395874,455.883911 
	C207.032196,455.278259 206.668533,454.672607 206.304855,454.066986 
	C204.116699,454.946198 201.949844,455.883514 199.736710,456.694550 
	C190.499588,460.079773 181.616837,457.165344 177.396500,448.990417 
	C173.645599,441.724792 172.897537,434.066406 175.931122,426.276520 
	C178.607834,419.403137 183.920837,416.044952 191.483093,416.169098 
	C198.268494,416.280518 200.763382,420.284271 201.318405,426.378174 
	C201.381577,427.071777 202.567017,428.266052 203.068359,428.187134 
	C204.015686,428.038208 205.309662,427.325470 205.647675,426.510315 
	C208.241653,420.254852 206.005569,415.807159 199.523361,413.939819 
	C185.347763,409.856262 171.270935,416.175232 167.521622,428.503815 
	C164.426651,438.680817 166.105698,454.119537 178.909744,460.683594 
	C179.510971,460.991821 179.647202,462.207153 180.000000,463.000000 
	C165.645767,463.000000 151.291550,463.000000 136.025146,462.813599 
	C137.454254,451.791931 137.454254,451.791931 134.081039,450.582642 
	C133.762146,451.120514 133.422195,451.676910 133.098419,452.242615 
	C129.954529,457.736053 122.197525,460.577911 116.323936,458.119171 
	C115.203445,457.650146 113.896339,456.049866 113.832542,454.906921 
	C113.558189,449.992035 113.715378,445.053040 113.715378,440.782257 
	C121.191277,436.646729 124.335732,442.726990 128.887482,447.686157 
	C128.887482,440.775574 128.887482,435.705566 128.887482,429.200531 
	C124.160500,433.530304 120.195335,438.196899 113.841385,434.621796 
	C113.841385,428.946167 113.841385,423.203491 113.841385,417.156982 
	C119.481667,417.213257 125.128792,415.423279 129.408340,420.501007 
	C130.824677,422.181488 132.236343,423.865936 133.650146,425.548553 
	C133.812531,423.052490 134.009460,420.557922 134.117676,418.059509 
	C134.153275,417.237091 134.218735,416.233063 133.810562,415.616638 
	C133.179291,414.663300 132.165085,413.289825 131.291901,413.273956 
	C121.969536,413.104919 112.642563,413.133575 103.318275,413.236633 
	C102.597824,413.244598 101.411705,414.145416 101.307076,414.774994 
	C101.202003,415.407288 102.058205,416.712524 102.702469,416.870789 
	C106.211418,417.732910 106.285751,420.450592 106.303619,423.145142 
	C106.361008,431.804352 106.423698,440.465424 106.298073,449.123077 
	C106.240753,453.073151 107.588860,457.743378 101.888153,459.521454 
	C101.288757,459.708435 101.281815,461.794861 101.000000,463.000000 
	C67.681458,463.000000 34.362915,463.000000 1.022185,463.000000 
	C1.022185,309.083130 1.022185,155.166245 1.022185,1.000000 
	C142.020798,1.000000 283.041748,1.000000 424.790558,1.404989 
	C425.446869,2.971055 425.312744,4.132127 425.312653,5.293210 
	C425.302917,123.763191 425.302185,242.233170 425.315155,360.703156 
	C425.315308,362.298035 425.496735,363.892914 425.611786,365.787781 
	C428.304657,365.787781 430.455383,365.787781 432.606110,365.787781 
	C549.243225,365.787781 665.880310,365.786621 782.517456,365.796631 
	C784.678284,365.796814 786.839172,365.929291 789.000000,366.000000 
	C789.000000,398.253235 789.000000,430.506439 789.000000,463.000000 
	C762.646240,463.000000 736.291809,463.000000 709.199097,462.594696 
	C708.641846,451.399231 708.829407,440.609192 709.001038,429.818909 
	C709.086182,424.468750 708.109741,418.832886 713.203003,414.867920 
	C713.376282,414.733063 713.061096,413.970734 713.005188,413.670898 
	C708.568970,413.670898 704.269226,413.670898 699.073486,413.670898 
	C701.257385,416.270325 703.968933,418.000183 704.055603,419.852783 
	C704.496887,429.290710 704.259216,438.760376 704.259216,448.358185 
	C703.810364,447.870239 703.440063,447.529907 703.142395,447.134796 
	C696.032593,437.699921 688.491821,428.549164 681.988708,418.712555 
	C677.972778,412.638153 673.153076,412.488434 665.938110,413.788025 
	C667.669373,415.285370 668.778931,415.982971 669.528748,416.957367 
	C670.551941,418.287231 672.023865,419.814240 672.051758,421.280548 
	C672.247559,431.595459 672.266663,441.920563 671.974854,452.232025 
	C671.917358,454.262787 670.283264,456.257294 669.341553,458.252167 
	C668.588379,459.847656 667.782471,461.418304 667.000000,463.000000 
	C652.312439,463.000000 637.624878,463.000000 622.073364,462.802826 
	C623.072144,461.310577 624.935120,460.015900 626.797485,458.720367 
	C637.443542,451.315063 640.428589,434.913910 633.234375,423.354370 
	C626.745422,412.928070 612.270508,409.618469 601.033264,415.991852 
	C585.458008,424.825562 585.392639,450.186096 600.869202,459.751923 
	C602.108521,460.517944 602.965393,461.902740 604.000000,463.000000 
	C589.312439,463.000000 574.624878,463.000000 559.481384,462.594849 
	C558.500732,460.973663 558.040588,459.724487 557.436523,458.549255 
	C556.476868,456.682251 554.596619,454.888153 554.543457,453.022278 
	C554.254517,442.888336 554.227966,432.735901 554.563843,422.604858 
	C554.627625,420.680817 556.712097,418.814209 557.896606,416.941589 
	C558.373962,416.186951 559.381958,415.451813 559.327637,414.773560 
	C559.281311,414.195221 558.072998,413.279572 557.354492,413.256073 
	C553.036438,413.114746 548.709106,413.118958 544.390442,413.252899 
	C543.615906,413.276917 542.392517,414.016785 542.240662,414.637512 
	C542.090576,415.251221 542.910156,416.666107 543.519714,416.808685 
	C547.087463,417.643066 547.049866,420.393188 547.064087,423.068939 
	C547.113647,432.379578 547.104553,441.690613 547.084229,451.001434 
	C547.077087,454.285461 547.606750,457.756836 543.136902,459.080597 
	C542.432800,459.289124 542.363037,461.639801 542.000000,463.000000 
M205.993088,187.532028 
	C222.315887,167.805054 238.638687,148.078094 255.617767,127.557968 
	C258.818451,134.517410 261.601898,140.510284 264.332489,146.527145 
	C266.223724,150.694473 264.320038,154.288574 260.336914,156.371567 
	C256.451447,158.403519 252.569214,160.906265 249.565613,164.044586 
	C245.648193,168.137711 242.304031,172.875427 239.272003,177.687866 
	C237.079727,181.167435 235.494766,185.119629 234.189941,189.044250 
	C232.745041,193.390152 231.706604,197.905090 230.898727,202.419373 
	C230.091064,206.932404 229.288330,211.548416 229.405350,216.095581 
	C229.518188,220.479645 231.058441,224.807175 231.520020,229.206924 
	C232.126328,234.986298 233.471191,240.359680 236.942047,245.178619 
	C239.056183,248.113846 240.583649,251.464264 242.538849,254.523209 
	C244.924271,258.255310 247.166519,262.153595 250.063110,265.461182 
	C252.457550,268.195404 255.524796,270.478333 258.634949,272.412903 
	C262.498871,274.816284 266.681549,276.721558 270.786285,278.719269 
	C274.782227,280.664032 278.708221,283.491333 282.923920,284.081787 
	C290.234283,285.105591 297.745331,284.866699 305.170471,284.828552 
	C308.824738,284.809753 312.512787,284.256012 316.117798,283.582092 
	C320.496552,282.763519 324.888947,281.822845 329.113129,280.439331 
	C332.105988,279.459045 335.087311,278.005615 337.613037,276.139709 
	C341.409821,273.334747 344.522461,269.558655 348.438995,266.972260 
	C353.404633,263.693085 356.927521,259.539886 359.497498,254.261902 
	C361.221191,250.722046 363.670898,247.539581 365.455536,244.024460 
	C367.455139,240.085892 369.673706,236.096664 370.686035,231.863800 
	C371.718597,227.546387 371.490448,222.909302 371.646545,218.406357 
	C371.765778,214.968857 371.616974,211.522308 371.598633,208.079712 
	C371.569702,202.655853 371.025726,197.404984 368.482208,192.406616 
	C366.619659,188.746384 365.739655,184.582184 363.843018,180.944351 
	C361.672241,176.780762 359.198792,172.674026 356.230713,169.056305 
	C353.428284,165.640472 350.015106,162.630005 346.503174,159.916794 
	C342.329498,156.692368 337.901642,153.734589 333.325073,151.113235 
	C329.485626,148.914047 325.384399,147.039261 321.195862,145.620850 
	C317.289124,144.297882 313.150085,143.322617 309.049347,142.995041 
	C303.703278,142.567978 298.258209,142.557281 292.923584,143.071335 
	C288.687408,143.479553 284.197632,144.249420 280.479218,146.148544 
	C277.132629,147.857758 276.167542,146.995697 274.920807,144.228363 
	C268.049835,128.977066 261.108887,113.757309 254.096390,98.316307 
	C254.878235,97.993736 256.059479,97.424683 257.293121,97.012611 
	C261.154785,95.722702 261.497711,94.033089 259.998657,89.924210 
	C257.813934,83.935852 253.200684,82.814316 248.318527,81.309601 
	C245.453781,80.426666 242.854752,81.226700 242.487289,84.098465 
	C242.276917,85.742493 243.995239,88.053314 245.467255,89.366928 
	C246.772781,90.531990 248.937592,90.734161 251.568802,91.658470 
	C249.720093,92.567169 248.746933,93.103928 247.728973,93.534813 
	C244.799973,94.774605 243.370575,96.983337 244.802704,99.887611 
	C246.892029,104.124657 244.707855,105.334892 241.221191,106.593155 
	C210.661163,117.621643 180.144577,128.770584 149.606735,139.860718 
	C148.269547,140.346329 146.851120,140.608215 145.705490,140.912003 
	C143.325790,136.956833 140.681580,133.664032 139.223648,129.910461 
	C136.149857,121.996788 133.814178,113.799698 130.933792,105.806053 
	C129.740494,102.494453 130.421753,100.652824 133.944519,100.237640 
	C140.045044,99.518639 146.176346,99.035629 152.254913,98.173042 
	C153.797775,97.954102 155.190582,96.677689 156.652328,95.887169 
	C155.377045,94.619423 154.302917,92.695351 152.781967,92.229233 
	C150.133118,91.417450 147.209854,91.269356 144.399673,91.256012 
	C132.593628,91.199905 120.784821,91.194054 108.982201,91.429497 
	C106.778366,91.473450 104.598328,92.709679 102.407303,93.395683 
	C103.345177,95.878250 103.647728,98.986549 105.350677,100.715576 
	C109.115067,104.537582 114.185501,104.752586 119.381058,104.210602 
	C120.901482,104.051994 123.697807,105.038506 124.011200,106.074409 
	C128.075668,119.509254 131.813141,133.043427 135.560028,146.572769 
	C135.750519,147.260635 135.544250,148.390900 135.071884,148.877701 
	C130.946747,153.129044 126.718788,157.280594 122.668564,161.315125 
	C108.465752,148.742661 92.106255,142.639191 73.976357,142.823532 
	C55.589478,143.010468 39.131161,150.127029 25.834467,162.666748 
	C11.616112,176.075653 4.274064,193.809906 3.599226,212.886627 
	C3.060903,228.104279 8.122352,242.832184 17.339537,255.748322 
	C26.976847,269.253143 39.925007,278.298370 55.377106,282.949066 
	C70.639664,287.542755 86.542244,286.693542 101.432365,280.941620 
	C116.503998,275.119659 128.513229,264.612762 136.977646,250.895721 
	C141.103226,244.210068 143.110504,236.217255 146.290451,228.282639 
	C151.637680,228.854614 157.941025,229.291489 164.157822,230.275208 
	C168.482758,230.959564 171.351105,229.624054 174.065338,226.266113 
	C184.434830,213.437424 195.031143,200.792084 205.993088,187.532028 
z"/>
<path fill="#8AF806" opacity="1.000000" stroke="none" 
	d="
M789.000000,365.531372 
	C786.839172,365.929291 784.678284,365.796814 782.517456,365.796631 
	C665.880310,365.786621 549.243225,365.787781 432.606110,365.787781 
	C430.455383,365.787781 428.304657,365.787781 425.611786,365.787781 
	C425.496735,363.892914 425.315308,362.298035 425.315155,360.703156 
	C425.302185,242.233170 425.302917,123.763191 425.312653,5.293210 
	C425.312744,4.132127 425.446869,2.971055 425.259216,1.404989 
	C546.260498,1.000000 667.520935,1.000000 789.000000,1.000000 
	C789.000000,122.354141 789.000000,243.708405 789.000000,365.531372 
M638.520203,174.313202 
	C634.083679,174.910217 629.655701,175.932449 625.208923,176.022293 
	C613.216064,176.264618 601.215271,176.118698 589.217590,176.108566 
	C582.962097,176.103287 582.823486,175.878815 584.429565,169.930054 
	C589.768250,150.155533 595.079346,130.373550 600.413208,110.597702 
	C603.969543,97.412186 607.534790,84.229042 611.118652,71.050980 
	C613.735901,61.426922 617.990356,58.159370 627.889221,58.130112 
	C633.388123,58.113857 638.887329,58.092701 644.385986,58.131561 
	C661.543762,58.252811 678.752075,57.621777 695.846252,58.734795 
	C717.800842,60.164288 728.940674,71.654350 731.854187,94.954315 
	C733.373657,107.105820 732.844055,119.508461 733.430115,131.788574 
	C733.499268,133.236923 734.452698,135.478348 735.548828,135.893768 
	C739.684692,137.461258 742.543823,135.717484 743.436401,131.387405 
	C747.604736,111.166176 751.698608,90.929588 755.813599,70.697365 
	C757.460083,62.602413 759.092346,54.504601 760.844727,45.846684 
	C758.077576,45.699413 755.968506,45.489559 753.859436,45.489052 
	C685.206055,45.472485 616.552612,45.475758 547.899231,45.478649 
	C546.399780,45.478714 544.844238,45.268192 543.418579,45.600754 
	C542.273621,45.867836 540.634033,46.599049 540.345886,47.490314 
	C539.305176,50.708748 538.742615,54.081829 537.936279,57.678673 
	C539.753967,57.875931 540.887085,58.100693 542.021179,58.105793 
	C550.685974,58.144787 559.354858,57.985287 568.014709,58.199642 
	C574.962097,58.371620 577.284241,61.630974 575.565247,68.351852 
	C573.832153,75.127998 571.960083,81.868759 570.128723,88.619553 
	C555.086426,144.066864 540.026367,199.509384 525.001831,254.961533 
	C520.560059,271.355194 516.281128,287.793121 511.799103,304.175629 
	C509.205994,313.653961 505.565948,316.304016 495.683838,316.350586 
	C487.852173,316.387482 480.018372,316.270172 472.189880,316.431854 
	C470.512726,316.466492 467.803986,316.976868 467.380005,318.010376 
	C465.991058,321.396271 465.436066,325.124207 464.392242,329.411682 
	C467.112671,329.411682 468.751709,329.411713 470.390747,329.411682 
	C544.209778,329.410919 618.028931,329.371002 691.847717,329.512360 
	C696.010193,329.520325 697.707397,328.041351 698.862427,324.317047 
	C708.925903,291.868011 719.132690,259.463470 729.268433,227.036804 
	C729.630615,225.878220 729.697388,224.627274 729.900208,223.429031 
	C721.476746,221.920456 721.368408,222.016357 718.569397,228.843033 
	C710.901855,247.543549 701.778015,265.460358 690.255432,282.129791 
	C675.272888,303.804871 654.551636,315.428497 628.396790,316.194153 
	C604.255554,316.900879 580.077026,316.407135 555.915588,316.304108 
	C548.140686,316.270935 545.703247,312.819305 547.718567,305.417206 
	C557.910767,267.981140 568.126953,230.551559 578.248047,193.096268 
	C579.069946,190.054749 580.478088,188.590286 583.753357,188.624603 
	C596.082642,188.753754 608.421692,188.450241 620.741577,188.823669 
	C633.314758,189.204758 639.800171,195.236847 642.439819,207.509354 
	C644.963867,219.244415 643.068298,230.720734 640.884277,242.194214 
	C639.698486,248.423630 640.864624,249.994675 647.049316,248.460556 
	C648.750488,248.038559 650.514893,245.251648 651.068909,243.226700 
	C657.176880,220.899628 663.046021,198.507278 668.990845,176.135513 
	C673.481262,159.236969 678.048706,142.358337 682.393494,125.422516 
	C682.835083,123.701294 682.650269,120.624763 681.602173,119.937805 
	C678.334961,117.796379 674.019348,119.951996 672.735840,123.849602 
	C670.444763,130.806778 668.585449,137.930710 665.890503,144.725067 
	C660.723511,157.752213 653.389771,169.041885 638.520203,174.313202 
z"/>
<path fill="#80E505" opacity="1.000000" stroke="none" 
	d="
M311.466125,463.000000 
	C311.365814,461.775696 311.433014,459.717010 312.145721,459.461945 
	C316.884521,457.765900 316.658875,453.579010 317.068085,449.935944 
	C318.033386,441.342499 318.675507,432.712280 319.409271,424.093597 
	C319.699402,420.685730 319.867065,417.321320 315.532562,416.040405 
	C315.054810,415.899200 314.868225,414.772675 314.522003,414.051941 
	C323.287750,411.514740 325.498627,412.411621 328.674988,419.571960 
	C332.719208,428.688751 336.744843,437.813812 340.813477,446.919708 
	C341.471863,448.393219 342.311462,449.785706 343.586426,452.197754 
	C347.506775,442.208771 351.060944,433.158966 354.607147,424.106049 
	C354.910278,423.332092 355.142609,422.530670 355.438019,421.753510 
	C359.096222,412.130890 359.214478,412.065002 370.183685,413.617218 
	C369.852325,414.522156 369.744690,415.914062 369.210052,416.103973 
	C364.555756,417.757599 364.893585,421.401001 365.284943,425.172333 
	C366.143402,433.444427 366.935883,441.723358 367.794617,449.995422 
	C368.169373,453.605347 368.084106,457.421600 372.294403,459.296783 
	C372.740631,459.495544 372.490845,461.257050 372.781982,462.646790 
	C367.645081,463.000000 362.290131,463.000000 356.405823,462.605347 
	C356.093872,461.302551 356.109192,459.725189 356.559784,459.589142 
	C361.418671,458.121674 360.957153,454.474640 360.458710,450.734192 
	C360.130096,448.267975 359.866394,445.793213 359.560883,443.323822 
	C359.033020,439.057373 358.495178,434.792175 357.961517,430.526428 
	C357.465576,430.473511 356.969666,430.420624 356.473724,430.367737 
	C352.178589,441.151886 347.883087,451.935883 343.606964,462.727570 
	C343.593658,462.761169 343.862762,462.906708 344.000000,463.000000 
	C342.611115,463.000000 341.222198,463.000000 339.710327,462.707031 
	C334.664215,451.630859 329.741058,440.847656 324.817902,430.064453 
	C324.310272,430.161438 323.802673,430.258423 323.295074,430.355438 
	C322.631470,437.225128 321.900238,444.089233 321.333496,450.966919 
	C321.060699,454.277039 320.650635,457.689423 324.892365,459.326355 
	C325.625031,459.609161 325.648804,461.728821 326.000000,463.000000 
	C321.310760,463.000000 316.621490,463.000000 311.466125,463.000000 
z"/>
<path fill="#7FE405" opacity="1.000000" stroke="none" 
	d="
M667.466125,463.000000 
	C667.782471,461.418304 668.588379,459.847656 669.341553,458.252167 
	C670.283264,456.257294 671.917358,454.262787 671.974854,452.232025 
	C672.266663,441.920563 672.247559,431.595459 672.051758,421.280548 
	C672.023865,419.814240 670.551941,418.287231 669.528748,416.957367 
	C668.778931,415.982971 667.669373,415.285370 665.938110,413.788025 
	C673.153076,412.488434 677.972778,412.638153 681.988708,418.712555 
	C688.491821,428.549164 696.032593,437.699921 703.142395,447.134796 
	C703.440063,447.529907 703.810364,447.870239 704.259216,448.358185 
	C704.259216,438.760376 704.496887,429.290710 704.055603,419.852783 
	C703.968933,418.000183 701.257385,416.270325 699.073486,413.670898 
	C704.269226,413.670898 708.568970,413.670898 713.005188,413.670898 
	C713.061096,413.970734 713.376282,414.733063 713.203003,414.867920 
	C708.109741,418.832886 709.086182,424.468750 709.001038,429.818909 
	C708.829407,440.609192 708.641846,451.399231 708.730469,462.594696 
	C707.933289,463.000000 706.866638,463.000000 705.394287,462.647369 
	C695.861877,450.178009 686.735107,438.061279 676.708069,424.749420 
	C676.708069,435.918396 676.673279,445.423248 676.766113,454.926880 
	C676.774597,455.802460 677.511047,456.728241 678.057617,457.529694 
	C679.323547,459.385986 680.680176,461.180450 682.000000,463.000000 
	C677.310730,463.000000 672.621521,463.000000 667.466125,463.000000 
z"/>
<path fill="#80E605" opacity="1.000000" stroke="none" 
	d="
M250.467957,463.000000 
	C249.069794,461.995728 248.307297,460.716278 247.182724,460.030945 
	C238.467194,454.719543 234.893005,446.693909 235.136185,436.864014 
	C235.361252,427.766174 239.105316,420.370117 247.255661,415.820374 
	C258.571716,409.503510 273.066986,413.164124 279.328461,423.711334 
	C286.416779,435.651337 283.221100,451.635193 272.302368,458.963287 
	C270.560913,460.132080 268.890411,461.406525 267.593567,462.816071 
	C262.311951,463.000000 256.623932,463.000000 250.467957,463.000000 
M247.039871,451.287506 
	C253.026047,461.475037 267.816742,462.498566 272.980286,450.416626 
	C276.590607,441.969025 275.991150,433.440338 271.499054,425.408386 
	C267.818359,418.827301 261.434448,415.503357 255.535568,416.640137 
	C249.256836,417.850128 244.427094,423.348145 243.340515,430.820404 
	C242.332626,437.751587 243.151199,444.436951 247.039871,451.287506 
z"/>
<path fill="#7EE205" opacity="1.000000" stroke="none" 
	d="
M101.468658,463.000000 
	C101.281815,461.794861 101.288757,459.708435 101.888153,459.521454 
	C107.588860,457.743378 106.240753,453.073151 106.298073,449.123077 
	C106.423698,440.465424 106.361008,431.804352 106.303619,423.145142 
	C106.285751,420.450592 106.211418,417.732910 102.702469,416.870789 
	C102.058205,416.712524 101.202003,415.407288 101.307076,414.774994 
	C101.411705,414.145416 102.597824,413.244598 103.318275,413.236633 
	C112.642563,413.133575 121.969536,413.104919 131.291901,413.273956 
	C132.165085,413.289825 133.179291,414.663300 133.810562,415.616638 
	C134.218735,416.233063 134.153275,417.237091 134.117676,418.059509 
	C134.009460,420.557922 133.812531,423.052490 133.650146,425.548553 
	C132.236343,423.865936 130.824677,422.181488 129.408340,420.501007 
	C125.128792,415.423279 119.481667,417.213257 113.841385,417.156982 
	C113.841385,423.203491 113.841385,428.946167 113.841385,434.621796 
	C120.195335,438.196899 124.160500,433.530304 128.887482,429.200531 
	C128.887482,435.705566 128.887482,440.775574 128.887482,447.686157 
	C124.335732,442.726990 121.191277,436.646729 113.715378,440.782257 
	C113.715378,445.053040 113.558189,449.992035 113.832542,454.906921 
	C113.896339,456.049866 115.203445,457.650146 116.323936,458.119171 
	C122.197525,460.577911 129.954529,457.736053 133.098419,452.242615 
	C133.422195,451.676910 133.762146,451.120514 134.081039,450.582642 
	C137.454254,451.791931 137.454254,451.791931 135.556488,462.813599 
	C124.645775,463.000000 113.291542,463.000000 101.468658,463.000000 
z"/>
<path fill="#82E905" opacity="1.000000" stroke="none" 
	d="
M416.468262,463.000000 
	C415.146271,461.986206 414.480011,460.669861 413.409180,460.006348 
	C404.568420,454.528412 401.126343,446.318268 401.531006,436.330627 
	C401.898987,427.246826 405.751099,419.956818 413.983337,415.580536 
	C425.195465,409.620117 439.425659,413.340668 445.580292,423.642944 
	C452.625641,435.436157 449.459106,451.549133 438.718170,458.888336 
	C437.048004,460.029510 435.593201,461.485901 434.519409,462.898285 
	C428.978851,463.000000 422.957703,463.000000 416.468262,463.000000 
M439.924103,429.955933 
	C438.784698,427.748962 437.922607,425.333466 436.450958,423.376312 
	C432.847351,418.583923 428.121216,415.617126 421.860291,416.656311 
	C415.555542,417.702789 412.009644,422.087128 410.364807,427.854980 
	C408.023010,436.066925 408.957336,444.109070 413.437653,451.431702 
	C416.832001,456.979492 421.966919,459.864655 428.617676,458.942871 
	C434.983368,458.060638 439.073456,453.860291 440.042633,447.921417 
	C440.953796,442.338013 440.185913,436.480591 439.924103,429.955933 
z"/>
<path fill="#82E905" opacity="1.000000" stroke="none" 
	d="
M604.467957,463.000000 
	C602.965393,461.902740 602.108521,460.517944 600.869202,459.751923 
	C585.392639,450.186096 585.458008,424.825562 601.033264,415.991852 
	C612.270508,409.618469 626.745422,412.928070 633.234375,423.354370 
	C640.428589,434.913910 637.443542,451.315063 626.797485,458.720367 
	C624.935120,460.015900 623.072144,461.310577 621.604736,462.802826 
	C616.311951,463.000000 610.623962,463.000000 604.467957,463.000000 
M620.137817,419.196014 
	C610.506836,413.882721 601.806885,416.935211 598.420654,427.251953 
	C595.578918,435.910034 596.728821,444.386505 601.727112,452.049377 
	C605.175476,457.336182 610.302673,459.877014 616.678528,458.919434 
	C622.775757,458.003693 626.369202,453.975464 627.927490,448.286072 
	C630.894836,437.452515 629.573242,427.562164 620.137817,419.196014 
z"/>
<path fill="#7FE405" opacity="1.000000" stroke="none" 
	d="
M180.468277,463.000000 
	C179.647202,462.207153 179.510971,460.991821 178.909744,460.683594 
	C166.105698,454.119537 164.426651,438.680817 167.521622,428.503815 
	C171.270935,416.175232 185.347763,409.856262 199.523361,413.939819 
	C206.005569,415.807159 208.241653,420.254852 205.647675,426.510315 
	C205.309662,427.325470 204.015686,428.038208 203.068359,428.187134 
	C202.567017,428.266052 201.381577,427.071777 201.318405,426.378174 
	C200.763382,420.284271 198.268494,416.280518 191.483093,416.169098 
	C183.920837,416.044952 178.607834,419.403137 175.931122,426.276520 
	C172.897537,434.066406 173.645599,441.724792 177.396500,448.990417 
	C181.616837,457.165344 190.499588,460.079773 199.736710,456.694550 
	C201.949844,455.883514 204.116699,454.946198 206.304855,454.066986 
	C206.668533,454.672607 207.032196,455.278259 207.395874,455.883911 
	C204.332565,458.124268 201.269257,460.364655 198.602966,462.802521 
	C192.978851,463.000000 186.957703,463.000000 180.468277,463.000000 
z"/>
<path fill="#80E605" opacity="1.000000" stroke="none" 
	d="
M486.468384,463.000000 
	C486.017975,460.774384 486.017273,458.804169 489.095398,458.254425 
	C490.218414,458.053864 491.815308,456.031830 491.834961,454.818695 
	C492.036743,442.372040 491.958618,429.920837 491.958618,417.530914 
	C484.479218,416.347931 483.563873,416.885803 480.491272,423.183258 
	C480.041260,424.105621 478.683258,424.584930 477.745361,425.269226 
	C477.338654,424.319336 476.580139,423.369568 476.579773,422.419525 
	C476.576447,413.153168 476.612549,413.153137 485.859528,413.153046 
	C495.163452,413.152985 504.467377,413.153015 514.250305,413.153015 
	C514.462158,416.656616 514.787537,419.764038 514.744812,422.866364 
	C514.733582,423.682800 513.583679,424.483521 512.956665,425.291473 
	C512.186279,424.642700 511.071808,424.148376 510.700165,423.320557 
	C507.847076,416.965973 507.202148,416.550415 499.368988,417.423462 
	C499.368988,421.731293 499.360504,426.147522 499.370911,430.563690 
	C499.388550,438.058136 499.385712,445.552948 499.460358,453.046875 
	C499.486053,455.629181 499.843140,457.879700 503.104187,458.759857 
	C504.078003,459.022705 504.460663,461.475525 505.557098,462.962494 
	C499.645599,463.000000 493.291199,463.000000 486.468384,463.000000 
z"/>
<path fill="#060B00" opacity="1.000000" stroke="none" 
	d="
M682.468628,463.000000 
	C680.680176,461.180450 679.323547,459.385986 678.057617,457.529694 
	C677.511047,456.728241 676.774597,455.802460 676.766113,454.926880 
	C676.673279,445.423248 676.708069,435.918396 676.708069,424.749420 
	C686.735107,438.061279 695.861877,450.178009 704.994385,462.647369 
	C697.645752,463.000000 690.291504,463.000000 682.468628,463.000000 
z"/>
<path fill="#82E905" opacity="1.000000" stroke="none" 
	d="
M542.467529,463.000000 
	C542.363037,461.639801 542.432800,459.289124 543.136902,459.080597 
	C547.606750,457.756836 547.077087,454.285461 547.084229,451.001434 
	C547.104553,441.690613 547.113647,432.379578 547.064087,423.068939 
	C547.049866,420.393188 547.087463,417.643066 543.519714,416.808685 
	C542.910156,416.666107 542.090576,415.251221 542.240662,414.637512 
	C542.392517,414.016785 543.615906,413.276917 544.390442,413.252899 
	C548.709106,413.118958 553.036438,413.114746 557.354492,413.256073 
	C558.072998,413.279572 559.281311,414.195221 559.327637,414.773560 
	C559.381958,415.451813 558.373962,416.186951 557.896606,416.941589 
	C556.712097,418.814209 554.627625,420.680817 554.563843,422.604858 
	C554.227966,432.735901 554.254517,442.888336 554.543457,453.022278 
	C554.596619,454.888153 556.476868,456.682251 557.436523,458.549255 
	C558.040588,459.724487 558.500732,460.973663 559.012695,462.594849 
	C553.645081,463.000000 548.290100,463.000000 542.467529,463.000000 
z"/>
<path fill="#080E00" opacity="1.000000" stroke="none" 
	d="
M326.463196,463.000000 
	C325.648804,461.728821 325.625031,459.609161 324.892365,459.326355 
	C320.650635,457.689423 321.060699,454.277039 321.333496,450.966919 
	C321.900238,444.089233 322.631470,437.225128 323.295074,430.355438 
	C323.802673,430.258423 324.310272,430.161438 324.817902,430.064453 
	C329.741058,440.847656 334.664215,451.630859 339.293701,462.707031 
	C334.975464,463.000000 330.950897,463.000000 326.463196,463.000000 
z"/>
<path fill="#091000" opacity="1.000000" stroke="none" 
	d="
M344.460632,463.000000 
	C343.862762,462.906708 343.593658,462.761169 343.606964,462.727570 
	C347.883087,451.935883 352.178589,441.151886 356.473724,430.367737 
	C356.969666,430.420624 357.465576,430.473511 357.961517,430.526428 
	C358.495178,434.792175 359.033020,439.057373 359.560883,443.323822 
	C359.866394,445.793213 360.130096,448.267975 360.458710,450.734192 
	C360.957153,454.474640 361.418671,458.121674 356.559784,459.589142 
	C356.109192,459.725189 356.093872,461.302551 355.938232,462.605347 
	C352.307098,463.000000 348.614166,463.000000 344.460632,463.000000 
z"/>
<path fill="#85EE06" opacity="1.000000" stroke="none" 
	d="
M205.767929,187.805161 
	C195.031143,200.792084 184.434830,213.437424 174.065338,226.266113 
	C171.351105,229.624054 168.482758,230.959564 164.157822,230.275208 
	C157.941025,229.291489 151.637680,228.854614 146.290451,228.282639 
	C143.110504,236.217255 141.103226,244.210068 136.977646,250.895721 
	C128.513229,264.612762 116.503998,275.119659 101.432365,280.941620 
	C86.542244,286.693542 70.639664,287.542755 55.377106,282.949066 
	C39.925007,278.298370 26.976847,269.253143 17.339537,255.748322 
	C8.122352,242.832184 3.060903,228.104279 3.599226,212.886627 
	C4.274064,193.809906 11.616112,176.075653 25.834467,162.666748 
	C39.131161,150.127029 55.589478,143.010468 73.976357,142.823532 
	C92.106255,142.639191 108.465752,148.742661 122.668564,161.315125 
	C126.718788,157.280594 130.946747,153.129044 135.071884,148.877701 
	C135.544250,148.390900 135.750519,147.260635 135.560028,146.572769 
	C131.813141,133.043427 128.075668,119.509254 124.011200,106.074409 
	C123.697807,105.038506 120.901482,104.051994 119.381058,104.210602 
	C114.185501,104.752586 109.115067,104.537582 105.350677,100.715576 
	C103.647728,98.986549 103.345177,95.878250 102.407303,93.395683 
	C104.598328,92.709679 106.778366,91.473450 108.982201,91.429497 
	C120.784821,91.194054 132.593628,91.199905 144.399673,91.256012 
	C147.209854,91.269356 150.133118,91.417450 152.781967,92.229233 
	C154.302917,92.695351 155.377045,94.619423 156.652328,95.887169 
	C155.190582,96.677689 153.797775,97.954102 152.254913,98.173042 
	C146.176346,99.035629 140.045044,99.518639 133.944519,100.237640 
	C130.421753,100.652824 129.740494,102.494453 130.933792,105.806053 
	C133.814178,113.799698 136.149857,121.996788 139.223648,129.910461 
	C140.681580,133.664032 143.325790,136.956833 145.705490,140.912003 
	C146.851120,140.608215 148.269547,140.346329 149.606735,139.860718 
	C180.144577,128.770584 210.661163,117.621643 241.221191,106.593155 
	C244.707855,105.334892 246.892029,104.124657 244.802704,99.887611 
	C243.370575,96.983337 244.799973,94.774605 247.728973,93.534813 
	C248.746933,93.103928 249.720093,92.567169 251.568802,91.658470 
	C248.937592,90.734161 246.772781,90.531990 245.467255,89.366928 
	C243.995239,88.053314 242.276917,85.742493 242.487289,84.098465 
	C242.854752,81.226700 245.453781,80.426666 248.318527,81.309601 
	C253.200684,82.814316 257.813934,83.935852 259.998657,89.924210 
	C261.497711,94.033089 261.154785,95.722702 257.293121,97.012611 
	C256.059479,97.424683 254.878235,97.993736 254.096390,98.316307 
	C261.108887,113.757309 268.049835,128.977066 274.920807,144.228363 
	C276.167542,146.995697 277.132629,147.857758 280.479218,146.148544 
	C284.197632,144.249420 288.687408,143.479553 292.923584,143.071335 
	C298.258209,142.557281 303.703278,142.567978 309.049347,142.995041 
	C313.150085,143.322617 317.289124,144.297882 321.195862,145.620850 
	C325.384399,147.039261 329.485626,148.914047 333.325073,151.113235 
	C337.901642,153.734589 342.329498,156.692368 346.503174,159.916794 
	C350.015106,162.630005 353.428284,165.640472 356.230713,169.056305 
	C359.198792,172.674026 361.672241,176.780762 363.843018,180.944351 
	C365.739655,184.582184 366.619659,188.746384 368.482208,192.406616 
	C371.025726,197.404984 371.569702,202.655853 371.598633,208.079712 
	C371.616974,211.522308 371.765778,214.968857 371.646545,218.406357 
	C371.490448,222.909302 371.718597,227.546387 370.686035,231.863800 
	C369.673706,236.096664 367.455139,240.085892 365.455536,244.024460 
	C363.670898,247.539581 361.221191,250.722046 359.497498,254.261902 
	C356.927521,259.539886 353.404633,263.693085 348.438995,266.972260 
	C344.522461,269.558655 341.409821,273.334747 337.613037,276.139709 
	C335.087311,278.005615 332.105988,279.459045 329.113129,280.439331 
	C324.888947,281.822845 320.496552,282.763519 316.117798,283.582092 
	C312.512787,284.256012 308.824738,284.809753 305.170471,284.828552 
	C297.745331,284.866699 290.234283,285.105591 282.923920,284.081787 
	C278.708221,283.491333 274.782227,280.664032 270.786285,278.719269 
	C266.681549,276.721558 262.498871,274.816284 258.634949,272.412903 
	C255.524796,270.478333 252.457550,268.195404 250.063110,265.461182 
	C247.166519,262.153595 244.924271,258.255310 242.538849,254.523209 
	C240.583649,251.464264 239.056183,248.113846 236.942047,245.178619 
	C233.471191,240.359680 232.126328,234.986298 231.520020,229.206924 
	C231.058441,224.807175 229.518188,220.479645 229.405350,216.095581 
	C229.288330,211.548416 230.091064,206.932404 230.898727,202.419373 
	C231.706604,197.905090 232.745041,193.390152 234.189941,189.044250 
	C235.494766,185.119629 237.079727,181.167435 239.272003,177.687866 
	C242.304031,172.875427 245.648193,168.137711 249.565613,164.044586 
	C252.569214,160.906265 256.451447,158.403519 260.336914,156.371567 
	C264.320038,154.288574 266.223724,150.694473 264.332489,146.527145 
	C261.601898,140.510284 258.818451,134.517410 255.617767,127.557968 
	C238.638687,148.078094 222.315887,167.805054 205.767929,187.805161 
M252.414200,245.965698 
	C253.092896,246.913208 253.753967,247.873947 254.452881,248.806290 
	C268.974915,268.178589 293.184265,276.438324 316.668732,270.038208 
	C339.575012,263.795746 356.175171,243.796951 358.669250,219.439026 
	C361.005280,196.624252 348.551208,173.728027 327.566528,162.913681 
	C313.166534,155.492706 298.174194,154.375580 282.196838,159.654449 
	C283.164703,162.032257 283.895660,164.016098 284.766144,165.936691 
	C291.433685,180.647583 298.123962,195.348175 304.817810,210.047119 
	C306.390717,213.501053 307.287598,217.081741 303.006317,219.012543 
	C298.670105,220.968079 296.699432,217.781296 295.146790,214.364792 
	C289.704803,202.390015 284.255280,190.418610 278.779907,178.459091 
	C276.658997,173.826523 274.461456,169.229050 272.318451,164.657486 
	C244.688446,176.363495 235.042923,215.755707 252.414200,245.965698 
M157.739929,148.186569 
	C156.801910,148.529602 155.864624,148.874619 154.925766,149.215332 
	C148.554504,151.527512 148.553497,151.527527 150.655899,157.808136 
	C154.672592,169.807373 158.678406,181.810303 162.724991,193.799438 
	C163.164642,195.102051 163.842407,196.324295 165.116699,199.153427 
	C166.699692,196.862946 167.500717,195.378845 168.599274,194.163803 
	C182.441177,178.854111 196.386017,163.637054 210.167175,148.273102 
	C214.949631,142.941360 220.593735,140.240891 227.796600,140.683136 
	C229.121002,140.764465 231.012421,140.433502 231.768967,139.547363 
	C237.927505,132.334030 243.890167,124.952934 249.860962,117.581230 
	C250.196503,117.166969 250.078751,116.385567 250.383224,114.391838 
	C219.195038,125.769226 188.833298,136.845123 157.739929,148.186569 
M37.608997,257.904266 
	C51.448933,269.421448 67.237732,273.800201 85.075638,271.158447 
	C115.155334,266.703705 137.136887,236.617264 132.330200,206.306046 
	C127.264641,174.362396 97.921631,152.297348 67.283546,157.510498 
	C43.602718,161.539856 27.370569,174.974472 20.429781,197.857208 
	C13.478832,220.773468 19.711340,240.871643 37.608997,257.904266 
M141.128738,162.319382 
	C140.373627,160.433777 139.618530,158.548187 138.914719,156.790680 
	C134.985596,160.394440 131.524277,163.569122 128.305710,166.521164 
	C131.626419,170.689331 134.910492,174.189301 137.431229,178.172379 
	C139.447968,181.359070 140.843033,185.039139 141.956879,188.671082 
	C143.242447,192.862991 143.496338,197.392212 144.961761,201.502762 
	C146.839645,206.770172 146.673645,211.957245 146.170151,217.326782 
	C146.062943,218.469986 147.160843,220.631241 148.013153,220.805008 
	C152.011490,221.620255 156.117920,221.905396 161.287827,222.508392 
	C154.421738,202.018524 147.895294,182.542221 141.128738,162.319382 
z"/>
<path fill="#0F120D" opacity="1.000000" stroke="none" 
	d="
M638.899841,174.187805 
	C653.389771,169.041885 660.723511,157.752213 665.890503,144.725067 
	C668.585449,137.930710 670.444763,130.806778 672.735840,123.849602 
	C674.019348,119.951996 678.334961,117.796379 681.602173,119.937805 
	C682.650269,120.624763 682.835083,123.701294 682.393494,125.422516 
	C678.048706,142.358337 673.481262,159.236969 668.990845,176.135513 
	C663.046021,198.507278 657.176880,220.899628 651.068909,243.226700 
	C650.514893,245.251648 648.750488,248.038559 647.049316,248.460556 
	C640.864624,249.994675 639.698486,248.423630 640.884277,242.194214 
	C643.068298,230.720734 644.963867,219.244415 642.439819,207.509354 
	C639.800171,195.236847 633.314758,189.204758 620.741577,188.823669 
	C608.421692,188.450241 596.082642,188.753754 583.753357,188.624603 
	C580.478088,188.590286 579.069946,190.054749 578.248047,193.096268 
	C568.126953,230.551559 557.910767,267.981140 547.718567,305.417206 
	C545.703247,312.819305 548.140686,316.270935 555.915588,316.304108 
	C580.077026,316.407135 604.255554,316.900879 628.396790,316.194153 
	C654.551636,315.428497 675.272888,303.804871 690.255432,282.129791 
	C701.778015,265.460358 710.901855,247.543549 718.569397,228.843033 
	C721.368408,222.016357 721.476746,221.920456 729.900208,223.429031 
	C729.697388,224.627274 729.630615,225.878220 729.268433,227.036804 
	C719.132690,259.463470 708.925903,291.868011 698.862427,324.317047 
	C697.707397,328.041351 696.010193,329.520325 691.847717,329.512360 
	C618.028931,329.371002 544.209778,329.410919 470.390747,329.411682 
	C468.751709,329.411713 467.112671,329.411682 464.392242,329.411682 
	C465.436066,325.124207 465.991058,321.396271 467.380005,318.010376 
	C467.803986,316.976868 470.512726,316.466492 472.189880,316.431854 
	C480.018372,316.270172 487.852173,316.387482 495.683838,316.350586 
	C505.565948,316.304016 509.205994,313.653961 511.799103,304.175629 
	C516.281128,287.793121 520.560059,271.355194 525.001831,254.961533 
	C540.026367,199.509384 555.086426,144.066864 570.128723,88.619553 
	C571.960083,81.868759 573.832153,75.127998 575.565247,68.351852 
	C577.284241,61.630974 574.962097,58.371620 568.014709,58.199642 
	C559.354858,57.985287 550.685974,58.144787 542.021179,58.105793 
	C540.887085,58.100693 539.753967,57.875931 537.936279,57.678673 
	C538.742615,54.081829 539.305176,50.708748 540.345886,47.490314 
	C540.634033,46.599049 542.273621,45.867836 543.418579,45.600754 
	C544.844238,45.268192 546.399780,45.478714 547.899231,45.478649 
	C616.552612,45.475758 685.206055,45.472485 753.859436,45.489052 
	C755.968506,45.489559 758.077576,45.699413 760.844727,45.846684 
	C759.092346,54.504601 757.460083,62.602413 755.813599,70.697365 
	C751.698608,90.929588 747.604736,111.166176 743.436401,131.387405 
	C742.543823,135.717484 739.684692,137.461258 735.548828,135.893768 
	C734.452698,135.478348 733.499268,133.236923 733.430115,131.788574 
	C732.844055,119.508461 733.373657,107.105820 731.854187,94.954315 
	C728.940674,71.654350 717.800842,60.164288 695.846252,58.734795 
	C678.752075,57.621777 661.543762,58.252811 644.385986,58.131561 
	C638.887329,58.092701 633.388123,58.113857 627.889221,58.130112 
	C617.990356,58.159370 613.735901,61.426922 611.118652,71.050980 
	C607.534790,84.229042 603.969543,97.412186 600.413208,110.597702 
	C595.079346,130.373550 589.768250,150.155533 584.429565,169.930054 
	C582.823486,175.878815 582.962097,176.103287 589.217590,176.108566 
	C601.215271,176.118698 613.216064,176.264618 625.208923,176.022293 
	C629.655701,175.932449 634.083679,174.910217 638.899841,174.187805 
z"/>
<path fill="#030600" opacity="1.000000" stroke="none" 
	d="
M246.850403,450.964203 
	C243.151199,444.436951 242.332626,437.751587 243.340515,430.820404 
	C244.427094,423.348145 249.256836,417.850128 255.535568,416.640137 
	C261.434448,415.503357 267.818359,418.827301 271.499054,425.408386 
	C275.991150,433.440338 276.590607,441.969025 272.980286,450.416626 
	C267.816742,462.498566 253.026047,461.475037 246.850403,450.964203 
z"/>
<path fill="#030600" opacity="1.000000" stroke="none" 
	d="
M440.040466,430.349854 
	C440.185913,436.480591 440.953796,442.338013 440.042633,447.921417 
	C439.073456,453.860291 434.983368,458.060638 428.617676,458.942871 
	C421.966919,459.864655 416.832001,456.979492 413.437653,451.431702 
	C408.957336,444.109070 408.023010,436.066925 410.364807,427.854980 
	C412.009644,422.087128 415.555542,417.702789 421.860291,416.656311 
	C428.121216,415.617126 432.847351,418.583923 436.450958,423.376312 
	C437.922607,425.333466 438.784698,427.748962 440.040466,430.349854 
z"/>
<path fill="#030600" opacity="1.000000" stroke="none" 
	d="
M620.439148,419.409790 
	C629.573242,427.562164 630.894836,437.452515 627.927490,448.286072 
	C626.369202,453.975464 622.775757,458.003693 616.678528,458.919434 
	C610.302673,459.877014 605.175476,457.336182 601.727112,452.049377 
	C596.728821,444.386505 595.578918,435.910034 598.420654,427.251953 
	C601.806885,416.935211 610.506836,413.882721 620.439148,419.409790 
z"/>
<path fill="#020300" opacity="1.000000" stroke="none" 
	d="
M252.222321,245.653748 
	C235.042923,215.755707 244.688446,176.363495 272.318451,164.657486 
	C274.461456,169.229050 276.658997,173.826523 278.779907,178.459091 
	C284.255280,190.418610 289.704803,202.390015 295.146790,214.364792 
	C296.699432,217.781296 298.670105,220.968079 303.006317,219.012543 
	C307.287598,217.081741 306.390717,213.501053 304.817810,210.047119 
	C298.123962,195.348175 291.433685,180.647583 284.766144,165.936691 
	C283.895660,164.016098 283.164703,162.032257 282.196838,159.654449 
	C298.174194,154.375580 313.166534,155.492706 327.566528,162.913681 
	C348.551208,173.728027 361.005280,196.624252 358.669250,219.439026 
	C356.175171,243.796951 339.575012,263.795746 316.668732,270.038208 
	C293.184265,276.438324 268.974915,268.178589 254.452881,248.806290 
	C253.753967,247.873947 253.092896,246.913208 252.222321,245.653748 
z"/>
<path fill="#040700" opacity="1.000000" stroke="none" 
	d="
M158.105743,148.053802 
	C188.833298,136.845123 219.195038,125.769226 250.383224,114.391838 
	C250.078751,116.385567 250.196503,117.166969 249.860962,117.581230 
	C243.890167,124.952934 237.927505,132.334030 231.768967,139.547363 
	C231.012421,140.433502 229.121002,140.764465 227.796600,140.683136 
	C220.593735,140.240891 214.949631,142.941360 210.167175,148.273102 
	C196.386017,163.637054 182.441177,178.854111 168.599274,194.163803 
	C167.500717,195.378845 166.699692,196.862946 165.116699,199.153427 
	C163.842407,196.324295 163.164642,195.102051 162.724991,193.799438 
	C158.678406,181.810303 154.672592,169.807373 150.655899,157.808136 
	C148.553497,151.527527 148.554504,151.527512 154.925766,149.215332 
	C155.864624,148.874619 156.801910,148.529602 158.105743,148.053802 
z"/>
<path fill="#132200" opacity="1.000000" stroke="none" 
	d="
M37.350601,257.662170 
	C19.711340,240.871643 13.478832,220.773468 20.429781,197.857208 
	C27.370569,174.974472 43.602718,161.539856 67.283546,157.510498 
	C97.921631,152.297348 127.264641,174.362396 132.330200,206.306046 
	C137.136887,236.617264 115.155334,266.703705 85.075638,271.158447 
	C67.237732,273.800201 51.448933,269.421448 37.350601,257.662170 
M45.771698,170.132385 
	C34.586288,178.009735 27.192047,188.386063 23.788290,201.798965 
	C16.464350,230.659836 34.980659,260.329681 64.532364,266.617828 
	C93.970642,272.881836 123.592491,252.670273 127.782913,223.015320 
	C130.845154,201.344177 123.660011,183.276718 105.583290,170.808136 
	C86.438072,157.602570 66.339821,157.795273 45.771698,170.132385 
z"/>
<path fill="#0A1300" opacity="1.000000" stroke="none" 
	d="
M141.248795,162.692642 
	C147.895294,182.542221 154.421738,202.018524 161.287827,222.508392 
	C156.117920,221.905396 152.011490,221.620255 148.013153,220.805008 
	C147.160843,220.631241 146.062943,218.469986 146.170151,217.326782 
	C146.673645,211.957245 146.839645,206.770172 144.961761,201.502762 
	C143.496338,197.392212 143.242447,192.862991 141.956879,188.671082 
	C140.843033,185.039139 139.447968,181.359070 137.431229,178.172379 
	C134.910492,174.189301 131.626419,170.689331 128.305710,166.521164 
	C131.524277,163.569122 134.985596,160.394440 138.914719,156.790680 
	C139.618530,158.548187 140.373627,160.433777 141.248795,162.692642 
z"/>
<path fill="#88F406" opacity="1.000000" stroke="none" 
	d="
M46.074924,169.929413 
	C66.339821,157.795273 86.438072,157.602570 105.583290,170.808136 
	C123.660011,183.276718 130.845154,201.344177 127.782913,223.015320 
	C123.592491,252.670273 93.970642,272.881836 64.532364,266.617828 
	C34.980659,260.329681 16.464350,230.659836 23.788290,201.798965 
	C27.192047,188.386063 34.586288,178.009735 46.074924,169.929413 
M62.282036,248.759354 
	C73.030869,233.911194 83.779694,219.063049 94.528526,204.214890 
	C94.229095,203.785461 93.929672,203.356033 93.630241,202.926605 
	C89.264122,202.926605 84.898003,202.926605 79.603416,202.926605 
	C84.102905,193.931732 88.155701,185.829834 92.766350,176.612747 
	C85.438393,176.612747 79.177635,176.761597 72.929047,176.550400 
	C69.767960,176.443558 68.123680,177.424896 67.213043,180.582153 
	C65.460617,186.657990 63.288822,192.612793 61.294868,198.619095 
	C59.533508,203.924744 57.777477,209.232147 55.690224,215.531281 
	C61.010765,215.531281 65.380592,215.531281 70.649590,215.531281 
	C66.580750,227.819626 62.831951,239.141403 59.083153,250.463181 
	C59.727734,250.893936 60.372314,251.324677 61.016895,251.755432 
	C61.308239,250.951797 61.599586,250.148148 62.282036,248.759354 
z"/>
<path fill="#060B00" opacity="1.000000" stroke="none" 
	d="
M62.086483,249.051941 
	C61.599586,250.148148 61.308239,250.951797 61.016895,251.755432 
	C60.372314,251.324677 59.727734,250.893936 59.083153,250.463181 
	C62.831951,239.141403 66.580750,227.819626 70.649590,215.531281 
	C65.380592,215.531281 61.010765,215.531281 55.690224,215.531281 
	C57.777477,209.232147 59.533508,203.924744 61.294868,198.619095 
	C63.288822,192.612793 65.460617,186.657990 67.213043,180.582153 
	C68.123680,177.424896 69.767960,176.443558 72.929047,176.550400 
	C79.177635,176.761597 85.438393,176.612747 92.766350,176.612747 
	C88.155701,185.829834 84.102905,193.931732 79.603416,202.926605 
	C84.898003,202.926605 89.264122,202.926605 93.630241,202.926605 
	C93.929672,203.356033 94.229095,203.785461 94.528526,204.214890 
	C83.779694,219.063049 73.030869,233.911194 62.086483,249.051941 
z"/>
</svg>